<?xml version="1.0" encoding="utf-8"?>
<!-- Svg Vector Icons : http://www.onlinewebfonts.com/icon -->
<!DOCTYPE svg PUBLIC "-//W3C//DTD SVG 1.1//EN" "http://www.w3.org/Graphics/SVG/1.1/DTD/svg11.dtd">
<svg version="1.1" xmlns="http://www.w3.org/2000/svg" xmlns:xlink="http://www.w3.org/1999/xlink" x="0px" y="0px" viewBox="0 0 256 256" enable-background="new 0 0 256 256" xml:space="preserve">
<metadata> Svg Vector Icons : http://www.onlinewebfonts.com/icon </metadata>
<g><g><path fill="#000000" d="M237.5,136.8H32.3c-2,0-3.6-1.6-3.6-3.6v-3.7c0-2,1.6-3.6,3.6-3.6h205.2c2,0,3.6,1.6,3.6,3.6v3.7C241.1,135.2,239.5,136.8,237.5,136.8z"/><path fill="#000000" d="M28.3,128l-2.6-2.6c-1.4-1.4-1.4-3.7,0-5.2L45,100.8c1.4-1.4,3.7-1.4,5.2,0l2.6,2.6c1.4,1.4,1.4,3.7,0,5.2L33.4,128C32,129.4,29.7,129.4,28.3,128z"/><path fill="#000000" d="M75.1,100.2l7.8,7.8l-26.5,26.5l-7.8-7.8L75.1,100.2L75.1,100.2z"/><path fill="#000000" d="M104.2,100.2l7.8,7.8l-27.8,27.8l-7.8-7.8L104.2,100.2z"/><path fill="#000000" d="M131.7,100.2l7.8,7.8l-27.8,27.8l-7.8-7.8L131.7,100.2L131.7,100.2z"/><path fill="#000000" d="M159.1,100.2l7.8,7.8l-27.8,27.8l-7.8-7.8L159.1,100.2z"/><path fill="#000000" d="M186.6,100.2l7.8,7.8l-27.8,27.8l-7.8-7.8L186.6,100.2z"/><path fill="#000000" d="M214.1,100.2l7.8,7.8L194,135.8l-7.8-7.8L214.1,100.2z"/><path fill="#000000" d="M238,106l7.8,7.8L225,134.5l-7.8-7.8L238,106z"/><path fill="#000000" d="M232.1,122.2h5.3v6.9h-5.3V122.2z"/><path fill="#000000" d="M67.1,55.5l9.5,5.5L57.9,93.4l-9.5-5.5L67.1,55.5L67.1,55.5z"/><path fill="#000000" d="M95.2,47.9l9.5,5.5L85.1,87.5L75.6,82L95.2,47.9z"/><path fill="#000000" d="M121.7,40.8l9.5,5.5l-19.7,34.1l-9.5-5.5L121.7,40.8L121.7,40.8z"/><path fill="#000000" d="M148.3,33.6l9.5,5.5l-19.7,34.1l-9.5-5.5L148.3,33.6L148.3,33.6z"/><path fill="#000000" d="M174.8,26.5l9.5,5.5l-19.7,34.1l-9.5-5.5L174.8,26.5L174.8,26.5z"/><path fill="#000000" d="M201.3,19.4l9.5,5.5L191.2,59l-9.5-5.5L201.3,19.4z"/><path fill="#000000" d="M225.9,18.7l9.5,5.5l-14.6,25.4l-9.5-5.5L225.9,18.7z"/><path fill="#000000" d="M224.5,35.9l5.1-1.4l1.8,6.6l-5.1,1.4L224.5,35.9z"/><path fill="#000000" d="M25.7,73.5l8.5-2.3l1.6,6l-8.5,2.3L25.7,73.5z"/><path fill="#000000" d="M30.3,107.2h9v7.2h-9V107.2z"/><path fill="#000000" d="M28.6,90.5c4.2,0,7.6,3.4,7.6,7.6c0,4.2-3.4,7.6-7.6,7.6c-4.2,0-7.6-3.4-7.6-7.6C21,93.9,24.4,90.5,28.6,90.5 M28.6,79.5C18.3,79.5,10,87.8,10,98.1c0,10.3,8.3,18.6,18.6,18.6c10.3,0,18.6-8.3,18.6-18.6C47.2,87.8,38.9,79.5,28.6,79.5L28.6,79.5z"/><path fill="#000000" d="M236,44.2l-1-3.6c-0.5-1.9-2.5-3.1-4.5-2.6L32.4,91.3c-0.1,0-0.1,0-0.2,0c2.4,1.3,4,3.8,4,6.7c0,1.4-0.4,2.8-1.1,3.9c0,0,0.1,0,0.1,0l198.2-53.3C235.4,48.1,236.5,46.1,236,44.2z"/><path fill="#000000" d="M236.8,98.1H36.2c0,4.2-3.4,7.6-7.6,7.6c-2.4,0-4.5-1.1-5.9-2.8c-0.7,1.3-1.1,2.8-1.1,4.4v128.6c0,5,4.1,9.2,9.2,9.2h206.1c5,0,9.2-4.1,9.2-9.2V107.2C246,102.2,241.9,98.1,236.8,98.1z M235,233.9H32.6V109.1H235V233.9z"/><path fill="#000000" d="M46.4,64.4l-3.2-1.9c-1.7-1-4-0.4-5,1.3L24.5,87.6c-0.7,1.3-0.6,2.8,0.2,3.9c1.1-0.7,2.5-1.1,3.9-1.1c2.2,0,4.2,0.9,5.6,2.4l13.6-23.6C48.7,67.6,48.1,65.4,46.4,64.4z"/><path fill="#000000" d="M239.2,37.3L234,17.8c-1.3-4.9-6.3-7.8-11.2-6.5L23.7,64.9c-4.9,1.3-7.8,6.3-6.5,11.2l4.9,18.1c1.3-2.2,3.7-3.7,6.5-3.7c3.4,0,6.2,2.2,7.2,5.2c0.7,1.2,1.1,2.6,1.1,4c0,0.5,0,1-0.1,1.5l196-52.7C237.6,47.2,240.5,42.2,239.2,37.3z M32.6,91l-4.3-15.9l195.5-52.6l4.3,15.9L32.6,91z"/></g></g>
</svg>